<svg xmlns="http://www.w3.org/2000/svg" viewBox="0 0 1200 630" width="1200" height="630">
  <defs>
    <linearGradient id="bg" x1="0%" y1="0%" x2="100%" y2="100%">
      <stop offset="0%" style="stop-color:#1a1a2e"/>
      <stop offset="50%" style="stop-color:#16213e"/>
      <stop offset="100%" style="stop-color:#0f3460"/>
    </linearGradient>
    <linearGradient id="accent" x1="0%" y1="0%" x2="100%" y2="0%">
      <stop offset="0%" style="stop-color:#e94560"/>
      <stop offset="100%" style="stop-color:#ff6b6b"/>
    </linearGradient>
    <linearGradient id="docGrad" x1="0%" y1="0%" x2="0%" y2="100%">
      <stop offset="0%" style="stop-color:#ffffff;stop-opacity:0.15"/>
      <stop offset="100%" style="stop-color:#ffffff;stop-opacity:0.05"/>
    </linearGradient>
  </defs>
  
  <!-- Background -->
  <rect width="1200" height="630" fill="url(#bg)"/>
  
  <!-- Subtle grid pattern -->
  <g opacity="0.04">
    <line x1="0" y1="0" x2="0" y2="630" stroke="#fff" stroke-width="1" />
    <line x1="60" y1="0" x2="60" y2="630" stroke="#fff" stroke-width="1" />
    <line x1="120" y1="0" x2="120" y2="630" stroke="#fff" stroke-width="1" />
    <line x1="180" y1="0" x2="180" y2="630" stroke="#fff" stroke-width="1" />
    <line x1="240" y1="0" x2="240" y2="630" stroke="#fff" stroke-width="1" />
    <line x1="300" y1="0" x2="300" y2="630" stroke="#fff" stroke-width="1" />
    <line x1="360" y1="0" x2="360" y2="630" stroke="#fff" stroke-width="1" />
    <line x1="420" y1="0" x2="420" y2="630" stroke="#fff" stroke-width="1" />
    <line x1="480" y1="0" x2="480" y2="630" stroke="#fff" stroke-width="1" />
    <line x1="540" y1="0" x2="540" y2="630" stroke="#fff" stroke-width="1" />
    <line x1="600" y1="0" x2="600" y2="630" stroke="#fff" stroke-width="1" />
    <line x1="660" y1="0" x2="660" y2="630" stroke="#fff" stroke-width="1" />
    <line x1="720" y1="0" x2="720" y2="630" stroke="#fff" stroke-width="1" />
    <line x1="780" y1="0" x2="780" y2="630" stroke="#fff" stroke-width="1" />
    <line x1="840" y1="0" x2="840" y2="630" stroke="#fff" stroke-width="1" />
    <line x1="900" y1="0" x2="900" y2="630" stroke="#fff" stroke-width="1" />
    <line x1="960" y1="0" x2="960" y2="630" stroke="#fff" stroke-width="1" />
    <line x1="1020" y1="0" x2="1020" y2="630" stroke="#fff" stroke-width="1" />
    <line x1="1080" y1="0" x2="1080" y2="630" stroke="#fff" stroke-width="1" />
    <line x1="1140" y1="0" x2="1140" y2="630" stroke="#fff" stroke-width="1" />
    <line x1="1200" y1="0" x2="1200" y2="630" stroke="#fff" stroke-width="1" />
    <line x1="0" y1="0" x2="1200" y2="0" stroke="#fff" stroke-width="1" />
    <line x1="0" y1="60" x2="1200" y2="60" stroke="#fff" stroke-width="1" />
    <line x1="0" y1="120" x2="1200" y2="120" stroke="#fff" stroke-width="1" />
    <line x1="0" y1="180" x2="1200" y2="180" stroke="#fff" stroke-width="1" />
    <line x1="0" y1="240" x2="1200" y2="240" stroke="#fff" stroke-width="1" />
    <line x1="0" y1="300" x2="1200" y2="300" stroke="#fff" stroke-width="1" />
    <line x1="0" y1="360" x2="1200" y2="360" stroke="#fff" stroke-width="1" />
    <line x1="0" y1="420" x2="1200" y2="420" stroke="#fff" stroke-width="1" />
    <line x1="0" y1="480" x2="1200" y2="480" stroke="#fff" stroke-width="1" />
    <line x1="0" y1="540" x2="1200" y2="540" stroke="#fff" stroke-width="1" />
    <line x1="0" y1="600" x2="1200" y2="600" stroke="#fff" stroke-width="1" />
  </g>

  <!-- Left side: scattered config file icons -->
  <g transform="translate(80, 160)" opacity="0.6">
    <!-- Config file 1 -->
    <rect x="0" y="0" width="70" height="90" rx="4" fill="url(#docGrad)" stroke="#ffffff" stroke-opacity="0.2" stroke-width="1"/>
    <rect x="10" y="12" width="30" height="3" rx="1.5" fill="#e94560" opacity="0.7"/>
    <rect x="10" y="22" width="50" height="2" rx="1" fill="#fff" opacity="0.3"/>
    <rect x="10" y="30" width="45" height="2" rx="1" fill="#fff" opacity="0.3"/>
    <rect x="10" y="38" width="50" height="2" rx="1" fill="#fff" opacity="0.3"/>
    <rect x="10" y="50" width="25" height="3" rx="1.5" fill="#e94560" opacity="0.5"/>
    <rect x="10" y="60" width="48" height="2" rx="1" fill="#fff" opacity="0.3"/>
    <rect x="10" y="68" width="40" height="2" rx="1" fill="#fff" opacity="0.3"/>
  </g>
  
  <g transform="translate(120, 300)" opacity="0.5">
    <!-- Config file 2 -->
    <rect x="0" y="0" width="70" height="90" rx="4" fill="url(#docGrad)" stroke="#ffffff" stroke-opacity="0.2" stroke-width="1"/>
    <rect x="10" y="12" width="35" height="3" rx="1.5" fill="#e94560" opacity="0.7"/>
    <rect x="10" y="22" width="50" height="2" rx="1" fill="#fff" opacity="0.3"/>
    <rect x="10" y="30" width="42" height="2" rx="1" fill="#fff" opacity="0.3"/>
    <rect x="10" y="42" width="28" height="3" rx="1.5" fill="#e94560" opacity="0.5"/>
    <rect x="10" y="52" width="50" height="2" rx="1" fill="#fff" opacity="0.3"/>
    <rect x="10" y="60" width="46" height="2" rx="1" fill="#fff" opacity="0.3"/>
    <rect x="10" y="68" width="38" height="2" rx="1" fill="#fff" opacity="0.3"/>
  </g>

  <g transform="translate(40, 390)" opacity="0.4">
    <!-- Config file 3 -->
    <rect x="0" y="0" width="70" height="90" rx="4" fill="url(#docGrad)" stroke="#ffffff" stroke-opacity="0.2" stroke-width="1"/>
    <rect x="10" y="12" width="40" height="3" rx="1.5" fill="#e94560" opacity="0.7"/>
    <rect x="10" y="22" width="48" height="2" rx="1" fill="#fff" opacity="0.3"/>
    <rect x="10" y="30" width="50" height="2" rx="1" fill="#fff" opacity="0.3"/>
    <rect x="10" y="38" width="35" height="2" rx="1" fill="#fff" opacity="0.3"/>
  </g>
  
  <!-- Center: Arrow / flow from scattered to organized -->
  <g transform="translate(260, 295)">
    <line x1="0" y1="0" x2="120" y2="0" stroke="url(#accent)" stroke-width="3" stroke-dasharray="8,6" opacity="0.6"/>
    <polygon points="125,-8 145,0 125,8" fill="#e94560" opacity="0.7"/>
  </g>

  <!-- Right side: organized documentation system -->
  <g transform="translate(430, 140)">
    <!-- Main container -->
    <rect x="0" y="0" width="280" height="350" rx="8" fill="url(#docGrad)" stroke="#e94560" stroke-opacity="0.3" stroke-width="1.5"/>
    
    <!-- Header bar -->
    <rect x="0" y="0" width="280" height="40" rx="8" fill="#e94560" fill-opacity="0.15"/>
    <rect x="0" y="32" width="280" height="8" fill="#e94560" fill-opacity="0.15" rx="0"/>
    <circle cx="20" cy="20" r="5" fill="#e94560" opacity="0.6"/>
    <circle cx="38" cy="20" r="5" fill="#ff6b6b" opacity="0.4"/>
    <circle cx="56" cy="20" r="5" fill="#fff" opacity="0.2"/>
    <text x="140" y="25" text-anchor="middle" fill="#ffffff" font-family="monospace" font-size="13" opacity="0.8">AGENTS.md</text>
    
    <!-- Organized doc rows -->
    <g transform="translate(15, 55)">
      <rect x="0" y="0" width="250" height="48" rx="4" fill="#ffffff" fill-opacity="0.05" stroke="#fff" stroke-opacity="0.1"/>
      <rect x="12" y="10" width="8" height="8" rx="2" fill="#e94560" opacity="0.7"/>
      <text x="28" y="18" fill="#ffffff" font-family="sans-serif" font-size="11" opacity="0.7">Project Description</text>
      <rect x="12" y="28" width="180" height="2" rx="1" fill="#fff" opacity="0.15"/>
      <rect x="12" y="34" width="140" height="2" rx="1" fill="#fff" opacity="0.1"/>
      <text x="238" y="18" text-anchor="end" fill="#4ecca3" font-family="monospace" font-size="9" opacity="0.6">✓ reviewed</text>
    </g>
    
    <g transform="translate(15, 112)">
      <rect x="0" y="0" width="250" height="48" rx="4" fill="#ffffff" fill-opacity="0.05" stroke="#fff" stroke-opacity="0.1"/>
      <rect x="12" y="10" width="8" height="8" rx="2" fill="#e94560" opacity="0.7"/>
      <text x="28" y="18" fill="#ffffff" font-family="sans-serif" font-size="11" opacity="0.7">Agent Definitions</text>
      <rect x="12" y="28" width="160" height="2" rx="1" fill="#fff" opacity="0.15"/>
      <rect x="12" y="34" width="200" height="2" rx="1" fill="#fff" opacity="0.1"/>
      <text x="238" y="18" text-anchor="end" fill="#4ecca3" font-family="monospace" font-size="9" opacity="0.6">✓ reviewed</text>
    </g>
    
    <g transform="translate(15, 169)">
      <rect x="0" y="0" width="250" height="48" rx="4" fill="#ffffff" fill-opacity="0.05" stroke="#fff" stroke-opacity="0.1"/>
      <rect x="12" y="10" width="8" height="8" rx="2" fill="#e94560" opacity="0.7"/>
      <text x="28" y="18" fill="#ffffff" font-family="sans-serif" font-size="11" opacity="0.7">Orchestration Patterns</text>
      <rect x="12" y="28" width="190" height="2" rx="1" fill="#fff" opacity="0.15"/>
      <rect x="12" y="34" width="150" height="2" rx="1" fill="#fff" opacity="0.1"/>
      <text x="238" y="18" text-anchor="end" fill="#4ecca3" font-family="monospace" font-size="9" opacity="0.6">✓ reviewed</text>
    </g>
    
    <g transform="translate(15, 226)">
      <rect x="0" y="0" width="250" height="48" rx="4" fill="#ffffff" fill-opacity="0.05" stroke="#fff" stroke-opacity="0.1"/>
      <rect x="12" y="10" width="8" height="8" rx="2" fill="#e94560" opacity="0.7"/>
      <text x="28" y="18" fill="#ffffff" font-family="sans-serif" font-size="11" opacity="0.7">Skills</text>
      <rect x="12" y="28" width="170" height="2" rx="1" fill="#fff" opacity="0.15"/>
      <rect x="12" y="34" width="120" height="2" rx="1" fill="#fff" opacity="0.1"/>
      <text x="238" y="18" text-anchor="end" fill="#4ecca3" font-family="monospace" font-size="9" opacity="0.6">✓ reviewed</text>
    </g>
    
    <g transform="translate(15, 283)">
      <rect x="0" y="0" width="250" height="48" rx="4" fill="#ffffff" fill-opacity="0.05" stroke="#fff" stroke-opacity="0.1"/>
      <rect x="12" y="10" width="8" height="8" rx="2" fill="#e94560" opacity="0.7"/>
      <text x="28" y="18" fill="#ffffff" font-family="sans-serif" font-size="11" opacity="0.7">Plans &amp; Specs</text>
      <rect x="12" y="28" width="200" height="2" rx="1" fill="#fff" opacity="0.15"/>
      <rect x="12" y="34" width="160" height="2" rx="1" fill="#fff" opacity="0.1"/>
      <text x="238" y="18" text-anchor="end" fill="#4ecca3" font-family="monospace" font-size="9" opacity="0.6">✓ reviewed</text>
    </g>
  </g>
  
  <!-- Right side decorative elements: version control / management symbols -->
  <g transform="translate(760, 200)" opacity="0.4">
    <!-- Git branch line -->
    <line x1="0" y1="0" x2="0" y2="230" stroke="#4ecca3" stroke-width="2"/>
    <circle cx="0" cy="0" r="6" fill="#16213e" stroke="#4ecca3" stroke-width="2"/>
    <circle cx="0" cy="70" r="6" fill="#16213e" stroke="#4ecca3" stroke-width="2"/>
    <circle cx="0" cy="140" r="6" fill="#16213e" stroke="#e94560" stroke-width="2"/>
    <circle cx="0" cy="230" r="6" fill="#16213e" stroke="#4ecca3" stroke-width="2"/>
    <!-- Branch -->
    <line x1="0" y1="70" x2="50" y2="105" stroke="#e94560" stroke-width="1.5" opacity="0.5"/>
    <circle cx="50" cy="105" r="4" fill="#16213e" stroke="#e94560" stroke-width="1.5" opacity="0.5"/>
    <line x1="50" y1="105" x2="0" y2="140" stroke="#e94560" stroke-width="1.5" opacity="0.5"/>
  </g>
  
  <!-- Title text -->
  <text x="600" y="570" text-anchor="middle" fill="#ffffff" font-family="'Segoe UI', system-ui, -apple-system, sans-serif" font-size="50" font-weight="700" letter-spacing="0.5">
    Agent Configs Are Internal Documentation
  </text>
  <rect x="300" y="585" width="600" height="3" rx="1.5" fill="url(#accent)" opacity="0.5"/>
  
  <!-- Subtitle -->
  <text x="600" y="618" text-anchor="middle" fill="#ffffff" font-family="'Segoe UI', system-ui, -apple-system, sans-serif" font-size="24" opacity="0.5" letter-spacing="2">
    instructionmanuel.com
  </text>
</svg>
